<svg xmlns="http://www.w3.org/2000/svg" xmlns:xlink="http://www.w3.org/1999/xlink" width="1200" zoomAndPan="magnify" viewBox="0 0 900 675.000002" height="900" preserveAspectRatio="xMidYMid meet" version="1.0"><defs><g/><clipPath id="02352354cc"><path d="M 227 86 L 689 86 L 689 204 L 227 204 Z M 227 86 " clip-rule="nonzero"/></clipPath><clipPath id="d0d2123dc3"><path d="M 228.125 203.050781 L 227.921875 203.023438 C 230.097656 200.847656 320.65625 130.289062 377.695312 109.628906 C 416.859375 95.464844 472.808594 86.972656 520.675781 86.972656 C 542.523438 86.972656 562.691406 88.734375 578.773438 92.527344 C 630.109375 104.632812 690.707031 128.878906 688.589844 128.878906 C 686.855469 128.878906 666.628906 118.476562 609.441406 118.476562 C 596.445312 118.476562 581.539062 119.003906 564.515625 120.328125 C 472.546875 127.4375 444.730469 132.433594 444.730469 132.433594 L 481.101562 152.390625 C 481.070312 152.390625 481.042969 152.390625 481.011719 152.390625 C 477.691406 152.390625 416.328125 165.054688 354.878906 177.722656 C 293.429688 190.386719 231.832031 203.050781 228.125 203.050781 Z M 228.125 203.050781 " clip-rule="nonzero"/></clipPath><linearGradient x1="0.340045" gradientTransform="matrix(402.148366, -105.478502, 105.531653, 401.945816, 90.111399, 234.881508)" y1="0" x2="1.487596" gradientUnits="userSpaceOnUse" y2="0" id="016069c3d0"><stop stop-opacity="1" stop-color="rgb(0%, 75.646973%, 85.206604%)" offset="0"/><stop stop-opacity="1" stop-color="rgb(0%, 75.811768%, 85.011292%)" offset="0.0078125"/><stop stop-opacity="1" stop-color="rgb(0%, 76.142883%, 84.622192%)" offset="0.015625"/><stop stop-opacity="1" stop-color="rgb(0%, 76.473999%, 84.231567%)" offset="0.0234375"/><stop stop-opacity="1" stop-color="rgb(0%, 76.803589%, 83.842468%)" offset="0.03125"/><stop stop-opacity="1" stop-color="rgb(0%, 77.134705%, 83.451843%)" offset="0.0390625"/><stop stop-opacity="1" stop-color="rgb(0%, 77.46582%, 83.062744%)" offset="0.046875"/><stop stop-opacity="1" stop-color="rgb(0%, 77.796936%, 82.672119%)" offset="0.0546875"/><stop stop-opacity="1" stop-color="rgb(0%, 78.128052%, 82.281494%)" offset="0.0625"/><stop stop-opacity="1" stop-color="rgb(0%, 78.457642%, 81.892395%)" offset="0.0703125"/><stop stop-opacity="1" stop-color="rgb(0%, 78.788757%, 81.50177%)" offset="0.078125"/><stop stop-opacity="1" stop-color="rgb(0%, 79.119873%, 81.112671%)" offset="0.0859375"/><stop stop-opacity="1" stop-color="rgb(0%, 79.450989%, 80.722046%)" offset="0.09375"/><stop stop-opacity="1" stop-color="rgb(0%, 79.782104%, 80.331421%)" offset="0.101563"/><stop stop-opacity="1" stop-color="rgb(0%, 80.111694%, 79.942322%)" offset="0.109375"/><stop stop-opacity="1" stop-color="rgb(0%, 80.44281%, 79.551697%)" offset="0.117187"/><stop stop-opacity="1" stop-color="rgb(0%, 80.773926%, 79.162598%)" offset="0.125"/><stop stop-opacity="1" stop-color="rgb(0%, 81.105042%, 78.771973%)" offset="0.132813"/><stop stop-opacity="1" stop-color="rgb(0%, 81.436157%, 78.382874%)" offset="0.140625"/><stop stop-opacity="1" stop-color="rgb(0%, 81.765747%, 77.992249%)" offset="0.148438"/><stop stop-opacity="1" stop-color="rgb(0%, 82.096863%, 77.601624%)" offset="0.15625"/><stop stop-opacity="1" stop-color="rgb(0%, 82.427979%, 77.212524%)" offset="0.164062"/><stop stop-opacity="1" stop-color="rgb(0%, 82.759094%, 76.821899%)" offset="0.171875"/><stop stop-opacity="1" stop-color="rgb(0%, 83.09021%, 76.4328%)" offset="0.179688"/><stop stop-opacity="1" stop-color="rgb(0%, 83.4198%, 76.042175%)" offset="0.1875"/><stop stop-opacity="1" stop-color="rgb(0%, 83.750916%, 75.65155%)" offset="0.195313"/><stop stop-opacity="1" stop-color="rgb(0%, 84.082031%, 75.262451%)" offset="0.203125"/><stop stop-opacity="1" stop-color="rgb(0%, 84.413147%, 74.871826%)" offset="0.210937"/><stop stop-opacity="1" stop-color="rgb(0%, 84.744263%, 74.482727%)" offset="0.21875"/><stop stop-opacity="1" stop-color="rgb(0%, 85.073853%, 74.092102%)" offset="0.226562"/><stop stop-opacity="1" stop-color="rgb(0%, 85.404968%, 73.703003%)" offset="0.234375"/><stop stop-opacity="1" stop-color="rgb(0%, 85.736084%, 73.312378%)" offset="0.242188"/><stop stop-opacity="1" stop-color="rgb(0%, 86.0672%, 72.921753%)" offset="0.25"/><stop stop-opacity="1" stop-color="rgb(0%, 86.398315%, 72.532654%)" offset="0.257812"/><stop stop-opacity="1" stop-color="rgb(0%, 86.727905%, 72.142029%)" offset="0.265625"/><stop stop-opacity="1" stop-color="rgb(0%, 87.059021%, 71.75293%)" offset="0.273437"/><stop stop-opacity="1" stop-color="rgb(0%, 87.390137%, 71.362305%)" offset="0.28125"/><stop stop-opacity="1" stop-color="rgb(0%, 87.721252%, 70.97168%)" offset="0.289062"/><stop stop-opacity="1" stop-color="rgb(0%, 88.052368%, 70.582581%)" offset="0.296875"/><stop stop-opacity="1" stop-color="rgb(0%, 88.383484%, 70.191956%)" offset="0.304687"/><stop stop-opacity="1" stop-color="rgb(0%, 88.713074%, 69.802856%)" offset="0.3125"/><stop stop-opacity="1" stop-color="rgb(0%, 89.044189%, 69.412231%)" offset="0.320312"/><stop stop-opacity="1" stop-color="rgb(0%, 89.375305%, 69.023132%)" offset="0.328125"/><stop stop-opacity="1" stop-color="rgb(0%, 89.706421%, 68.632507%)" offset="0.335937"/><stop stop-opacity="1" stop-color="rgb(0%, 90.037537%, 68.241882%)" offset="0.34375"/><stop stop-opacity="1" stop-color="rgb(0%, 90.367126%, 67.852783%)" offset="0.351562"/><stop stop-opacity="1" stop-color="rgb(0%, 90.698242%, 67.462158%)" offset="0.359375"/><stop stop-opacity="1" stop-color="rgb(0%, 91.029358%, 67.073059%)" offset="0.367187"/><stop stop-opacity="1" stop-color="rgb(0%, 91.360474%, 66.682434%)" offset="0.375"/><stop stop-opacity="1" stop-color="rgb(0%, 91.691589%, 66.291809%)" offset="0.382812"/><stop stop-opacity="1" stop-color="rgb(0%, 92.021179%, 65.90271%)" offset="0.390625"/><stop stop-opacity="1" stop-color="rgb(0%, 92.352295%, 65.512085%)" offset="0.398438"/><stop stop-opacity="1" stop-color="rgb(0%, 92.683411%, 65.122986%)" offset="0.40625"/><stop stop-opacity="1" stop-color="rgb(0%, 93.014526%, 64.732361%)" offset="0.414062"/><stop stop-opacity="1" stop-color="rgb(0%, 93.345642%, 64.343262%)" offset="0.421875"/><stop stop-opacity="1" stop-color="rgb(0%, 93.675232%, 63.952637%)" offset="0.429687"/><stop stop-opacity="1" stop-color="rgb(0%, 94.006348%, 63.562012%)" offset="0.4375"/><stop stop-opacity="1" stop-color="rgb(0%, 94.337463%, 63.172913%)" offset="0.445312"/><stop stop-opacity="1" stop-color="rgb(0%, 94.668579%, 62.782288%)" offset="0.453125"/><stop stop-opacity="1" stop-color="rgb(0%, 94.999695%, 62.393188%)" offset="0.460938"/><stop stop-opacity="1" stop-color="rgb(0%, 95.329285%, 62.002563%)" offset="0.46875"/><stop stop-opacity="1" stop-color="rgb(0%, 95.6604%, 61.611938%)" offset="0.476562"/><stop stop-opacity="1" stop-color="rgb(0%, 95.991516%, 61.222839%)" offset="0.484375"/><stop stop-opacity="1" stop-color="rgb(0%, 96.322632%, 60.832214%)" offset="0.492188"/><stop stop-opacity="1" stop-color="rgb(0%, 96.653748%, 60.443115%)" offset="0.5"/><stop stop-opacity="1" stop-color="rgb(0%, 96.983337%, 60.05249%)" offset="0.507812"/><stop stop-opacity="1" stop-color="rgb(0%, 97.314453%, 59.663391%)" offset="0.515625"/><stop stop-opacity="1" stop-color="rgb(0%, 97.645569%, 59.272766%)" offset="0.523438"/><stop stop-opacity="1" stop-color="rgb(0%, 97.976685%, 58.882141%)" offset="0.53125"/><stop stop-opacity="1" stop-color="rgb(0%, 98.3078%, 58.493042%)" offset="0.539062"/><stop stop-opacity="1" stop-color="rgb(0%, 98.63739%, 58.102417%)" offset="0.546875"/><stop stop-opacity="1" stop-color="rgb(0%, 98.968506%, 57.713318%)" offset="0.554688"/><stop stop-opacity="1" stop-color="rgb(0%, 99.299622%, 57.322693%)" offset="0.5625"/><stop stop-opacity="1" stop-color="rgb(0%, 99.630737%, 56.933594%)" offset="0.570312"/><stop stop-opacity="1" stop-color="rgb(0%, 99.897766%, 56.617737%)" offset="0.578125"/><stop stop-opacity="1" stop-color="rgb(0%, 100%, 56.498718%)" offset="0.59375"/><stop stop-opacity="1" stop-color="rgb(0%, 100%, 56.498718%)" offset="0.625"/><stop stop-opacity="1" stop-color="rgb(0%, 100%, 56.498718%)" offset="0.75"/><stop stop-opacity="1" stop-color="rgb(0%, 100%, 56.498718%)" offset="1"/></linearGradient><clipPath id="29aaeff0e5"><path d="M 105 155 L 825 155 L 825 331 L 105 331 Z M 105 155 " clip-rule="nonzero"/></clipPath><clipPath id="2d1384d83c"><path d="M 618.96875 330.183594 C 566.75 330.183594 511.269531 324.390625 511.269531 324.390625 L 513.179688 324.453125 C 536.140625 324.453125 604.382812 322.394531 647.195312 294.917969 C 697.589844 262.621094 737.515625 193.238281 737.515625 193.238281 C 737.515625 193.238281 295.457031 198.96875 105.3125 275.933594 C 105.3125 275.933594 283.109375 181.863281 509.355469 167.613281 C 670.949219 157.445312 762.242188 155.972656 801.230469 155.972656 C 816.8125 155.972656 824.046875 156.210938 824.046875 156.210938 C 824.046875 156.210938 804.082031 216.070312 753.6875 267.382812 C 703.292969 318.691406 685.238281 329.152344 630.082031 330.09375 L 618.9375 330.183594 Z M 618.96875 330.183594 " clip-rule="nonzero"/></clipPath><linearGradient x1="-0.08467" gradientTransform="matrix(983.979446, -590.095936, 590.393355, 983.48379, 251.756464, 385.379928)" y1="0" x2="0.530559" gradientUnits="userSpaceOnUse" y2="0" id="5e39250769"><stop stop-opacity="1" stop-color="rgb(0%, 63.09967%, 100%)" offset="0"/><stop stop-opacity="1" stop-color="rgb(0%, 63.09967%, 100%)" offset="0.125"/><stop stop-opacity="1" stop-color="rgb(0%, 63.13324%, 99.958801%)" offset="0.140625"/><stop stop-opacity="1" stop-color="rgb(0%, 63.25531%, 99.813843%)" offset="0.148438"/><stop stop-opacity="1" stop-color="rgb(0%, 63.433838%, 99.604797%)" offset="0.15625"/><stop stop-opacity="1" stop-color="rgb(0%, 63.61084%, 99.395752%)" offset="0.164062"/><stop stop-opacity="1" stop-color="rgb(0%, 63.787842%, 99.186707%)" offset="0.171875"/><stop stop-opacity="1" stop-color="rgb(0%, 63.964844%, 98.977661%)" offset="0.179688"/><stop stop-opacity="1" stop-color="rgb(0%, 64.143372%, 98.768616%)" offset="0.1875"/><stop stop-opacity="1" stop-color="rgb(0%, 64.320374%, 98.55957%)" offset="0.195313"/><stop stop-opacity="1" stop-color="rgb(0%, 64.497375%, 98.350525%)" offset="0.203125"/><stop stop-opacity="1" stop-color="rgb(0%, 64.674377%, 98.141479%)" offset="0.210938"/><stop stop-opacity="1" stop-color="rgb(0%, 64.851379%, 97.932434%)" offset="0.21875"/><stop stop-opacity="1" stop-color="rgb(0%, 65.029907%, 97.723389%)" offset="0.226563"/><stop stop-opacity="1" stop-color="rgb(0%, 65.206909%, 97.514343%)" offset="0.234375"/><stop stop-opacity="1" stop-color="rgb(0%, 65.383911%, 97.305298%)" offset="0.242188"/><stop stop-opacity="1" stop-color="rgb(0%, 65.560913%, 97.096252%)" offset="0.25"/><stop stop-opacity="1" stop-color="rgb(0%, 65.739441%, 96.887207%)" offset="0.257813"/><stop stop-opacity="1" stop-color="rgb(0%, 65.916443%, 96.676636%)" offset="0.265625"/><stop stop-opacity="1" stop-color="rgb(0%, 66.093445%, 96.46759%)" offset="0.273438"/><stop stop-opacity="1" stop-color="rgb(0%, 66.270447%, 96.258545%)" offset="0.28125"/><stop stop-opacity="1" stop-color="rgb(0%, 66.448975%, 96.0495%)" offset="0.289062"/><stop stop-opacity="1" stop-color="rgb(0%, 66.625977%, 95.840454%)" offset="0.296875"/><stop stop-opacity="1" stop-color="rgb(0%, 66.802979%, 95.631409%)" offset="0.304688"/><stop stop-opacity="1" stop-color="rgb(0%, 66.97998%, 95.422363%)" offset="0.3125"/><stop stop-opacity="1" stop-color="rgb(0%, 67.158508%, 95.213318%)" offset="0.320312"/><stop stop-opacity="1" stop-color="rgb(0%, 67.33551%, 95.004272%)" offset="0.328125"/><stop stop-opacity="1" stop-color="rgb(0%, 67.512512%, 94.795227%)" offset="0.335938"/><stop stop-opacity="1" stop-color="rgb(0%, 67.689514%, 94.586182%)" offset="0.34375"/><stop stop-opacity="1" stop-color="rgb(0%, 67.866516%, 94.377136%)" offset="0.351562"/><stop stop-opacity="1" stop-color="rgb(0%, 68.045044%, 94.168091%)" offset="0.359375"/><stop stop-opacity="1" stop-color="rgb(0%, 68.222046%, 93.959045%)" offset="0.367188"/><stop stop-opacity="1" stop-color="rgb(0%, 68.399048%, 93.75%)" offset="0.375"/><stop stop-opacity="1" stop-color="rgb(0%, 68.57605%, 93.540955%)" offset="0.382813"/><stop stop-opacity="1" stop-color="rgb(0%, 68.754578%, 93.331909%)" offset="0.390625"/><stop stop-opacity="1" stop-color="rgb(0%, 68.93158%, 93.122864%)" offset="0.398438"/><stop stop-opacity="1" stop-color="rgb(0%, 69.108582%, 92.913818%)" offset="0.40625"/><stop stop-opacity="1" stop-color="rgb(0%, 69.285583%, 92.704773%)" offset="0.414063"/><stop stop-opacity="1" stop-color="rgb(0%, 69.464111%, 92.495728%)" offset="0.421875"/><stop stop-opacity="1" stop-color="rgb(0%, 69.641113%, 92.286682%)" offset="0.429688"/><stop stop-opacity="1" stop-color="rgb(0%, 69.818115%, 92.077637%)" offset="0.4375"/><stop stop-opacity="1" stop-color="rgb(0%, 69.995117%, 91.868591%)" offset="0.445313"/><stop stop-opacity="1" stop-color="rgb(0%, 70.173645%, 91.659546%)" offset="0.453125"/><stop stop-opacity="1" stop-color="rgb(0%, 70.350647%, 91.4505%)" offset="0.460938"/><stop stop-opacity="1" stop-color="rgb(0%, 70.527649%, 91.241455%)" offset="0.46875"/><stop stop-opacity="1" stop-color="rgb(0%, 70.704651%, 91.03241%)" offset="0.476563"/><stop stop-opacity="1" stop-color="rgb(0%, 70.881653%, 90.823364%)" offset="0.484375"/><stop stop-opacity="1" stop-color="rgb(0%, 71.060181%, 90.614319%)" offset="0.492188"/><stop stop-opacity="1" stop-color="rgb(0%, 71.237183%, 90.405273%)" offset="0.5"/><stop stop-opacity="1" stop-color="rgb(0%, 71.414185%, 90.196228%)" offset="0.507812"/><stop stop-opacity="1" stop-color="rgb(0%, 71.591187%, 89.987183%)" offset="0.515625"/><stop stop-opacity="1" stop-color="rgb(0%, 71.769714%, 89.778137%)" offset="0.523438"/><stop stop-opacity="1" stop-color="rgb(0%, 71.946716%, 89.569092%)" offset="0.53125"/><stop stop-opacity="1" stop-color="rgb(0%, 72.123718%, 89.360046%)" offset="0.539062"/><stop stop-opacity="1" stop-color="rgb(0%, 72.30072%, 89.151001%)" offset="0.546875"/><stop stop-opacity="1" stop-color="rgb(0%, 72.479248%, 88.941956%)" offset="0.554688"/><stop stop-opacity="1" stop-color="rgb(0%, 72.65625%, 88.73291%)" offset="0.5625"/><stop stop-opacity="1" stop-color="rgb(0%, 72.833252%, 88.523865%)" offset="0.570313"/><stop stop-opacity="1" stop-color="rgb(0%, 73.010254%, 88.314819%)" offset="0.578125"/><stop stop-opacity="1" stop-color="rgb(0%, 73.187256%, 88.105774%)" offset="0.585938"/><stop stop-opacity="1" stop-color="rgb(0%, 73.365784%, 87.895203%)" offset="0.59375"/><stop stop-opacity="1" stop-color="rgb(0%, 73.542786%, 87.686157%)" offset="0.601562"/><stop stop-opacity="1" stop-color="rgb(0%, 73.719788%, 87.477112%)" offset="0.609375"/><stop stop-opacity="1" stop-color="rgb(0%, 73.89679%, 87.268066%)" offset="0.617188"/><stop stop-opacity="1" stop-color="rgb(0%, 74.075317%, 87.059021%)" offset="0.625"/><stop stop-opacity="1" stop-color="rgb(0%, 74.252319%, 86.849976%)" offset="0.632812"/><stop stop-opacity="1" stop-color="rgb(0%, 74.429321%, 86.64093%)" offset="0.640625"/><stop stop-opacity="1" stop-color="rgb(0%, 74.606323%, 86.431885%)" offset="0.648438"/><stop stop-opacity="1" stop-color="rgb(0%, 74.784851%, 86.222839%)" offset="0.65625"/><stop stop-opacity="1" stop-color="rgb(0%, 74.961853%, 86.013794%)" offset="0.664063"/><stop stop-opacity="1" stop-color="rgb(0%, 75.138855%, 85.804749%)" offset="0.671875"/><stop stop-opacity="1" stop-color="rgb(0%, 75.315857%, 85.595703%)" offset="0.679688"/><stop stop-opacity="1" stop-color="rgb(0%, 75.494385%, 85.386658%)" offset="0.6875"/><stop stop-opacity="1" stop-color="rgb(0%, 75.671387%, 85.177612%)" offset="0.695313"/><stop stop-opacity="1" stop-color="rgb(0%, 75.848389%, 84.968567%)" offset="0.703125"/><stop stop-opacity="1" stop-color="rgb(0%, 76.025391%, 84.759521%)" offset="0.710938"/><stop stop-opacity="1" stop-color="rgb(0%, 76.202393%, 84.550476%)" offset="0.71875"/><stop stop-opacity="1" stop-color="rgb(0%, 76.38092%, 84.341431%)" offset="0.726563"/><stop stop-opacity="1" stop-color="rgb(0%, 76.557922%, 84.132385%)" offset="0.734375"/><stop stop-opacity="1" stop-color="rgb(0%, 76.734924%, 83.92334%)" offset="0.742188"/><stop stop-opacity="1" stop-color="rgb(0%, 76.911926%, 83.714294%)" offset="0.75"/><stop stop-opacity="1" stop-color="rgb(0%, 77.090454%, 83.505249%)" offset="0.757812"/><stop stop-opacity="1" stop-color="rgb(0%, 77.267456%, 83.296204%)" offset="0.765625"/><stop stop-opacity="1" stop-color="rgb(0%, 77.444458%, 83.087158%)" offset="0.773438"/><stop stop-opacity="1" stop-color="rgb(0%, 77.62146%, 82.878113%)" offset="0.78125"/><stop stop-opacity="1" stop-color="rgb(0%, 77.799988%, 82.669067%)" offset="0.789063"/><stop stop-opacity="1" stop-color="rgb(0%, 77.97699%, 82.460022%)" offset="0.796875"/><stop stop-opacity="1" stop-color="rgb(0%, 78.153992%, 82.250977%)" offset="0.804688"/><stop stop-opacity="1" stop-color="rgb(0%, 78.330994%, 82.041931%)" offset="0.8125"/><stop stop-opacity="1" stop-color="rgb(0%, 78.509521%, 81.832886%)" offset="0.820313"/><stop stop-opacity="1" stop-color="rgb(0%, 78.686523%, 81.62384%)" offset="0.828125"/><stop stop-opacity="1" stop-color="rgb(0%, 78.863525%, 81.414795%)" offset="0.835938"/><stop stop-opacity="1" stop-color="rgb(0%, 79.040527%, 81.20575%)" offset="0.84375"/><stop stop-opacity="1" stop-color="rgb(0%, 79.217529%, 80.996704%)" offset="0.851563"/><stop stop-opacity="1" stop-color="rgb(0%, 79.396057%, 80.787659%)" offset="0.859375"/><stop stop-opacity="1" stop-color="rgb(0%, 79.573059%, 80.578613%)" offset="0.867187"/><stop stop-opacity="1" stop-color="rgb(0%, 79.750061%, 80.369568%)" offset="0.875"/><stop stop-opacity="1" stop-color="rgb(0%, 79.927063%, 80.160522%)" offset="0.882812"/><stop stop-opacity="1" stop-color="rgb(0%, 80.105591%, 79.951477%)" offset="0.890625"/><stop stop-opacity="1" stop-color="rgb(0%, 80.282593%, 79.742432%)" offset="0.898438"/><stop stop-opacity="1" stop-color="rgb(0%, 80.459595%, 79.533386%)" offset="0.90625"/><stop stop-opacity="1" stop-color="rgb(0%, 80.636597%, 79.324341%)" offset="0.914063"/><stop stop-opacity="1" stop-color="rgb(0%, 80.815125%, 79.11377%)" offset="0.921875"/><stop stop-opacity="1" stop-color="rgb(0%, 80.992126%, 78.904724%)" offset="0.929688"/><stop stop-opacity="1" stop-color="rgb(0%, 81.169128%, 78.695679%)" offset="0.9375"/><stop stop-opacity="1" stop-color="rgb(0%, 81.34613%, 78.486633%)" offset="0.945312"/><stop stop-opacity="1" stop-color="rgb(0%, 81.523132%, 78.277588%)" offset="0.953125"/><stop stop-opacity="1" stop-color="rgb(0%, 81.70166%, 78.068542%)" offset="0.960938"/><stop stop-opacity="1" stop-color="rgb(0%, 81.878662%, 77.859497%)" offset="0.96875"/><stop stop-opacity="1" stop-color="rgb(0%, 82.055664%, 77.650452%)" offset="0.976563"/><stop stop-opacity="1" stop-color="rgb(0%, 82.232666%, 77.441406%)" offset="0.984375"/><stop stop-opacity="1" stop-color="rgb(0%, 82.411194%, 77.232361%)" offset="0.992188"/><stop stop-opacity="1" stop-color="rgb(0%, 82.588196%, 77.023315%)" offset="1"/></linearGradient></defs><g clip-path="url(#02352354cc)"><g clip-path="url(#d0d2123dc3)"><path fill="url(#016069c3d0)" d="M 199.40625 94.453125 L 257.738281 316.617188 L 719.222656 195.574219 L 660.890625 -26.589844 Z M 199.40625 94.453125 " fill-rule="nonzero"/></g></g><g clip-path="url(#29aaeff0e5)"><g clip-path="url(#2d1384d83c)"><path fill="url(#5e39250769)" d="M 28.417969 202.089844 L 295.570312 647.113281 L 900.941406 284.066406 L 633.792969 -160.957031 Z M 28.417969 202.089844 " fill-rule="nonzero"/></g></g><g fill="#003398" fill-opacity="1"><g transform="translate(0.665679, 488.521322)"><g><path d="M 56.59375 -86.125 C 48.394531 -86.125 42.046875 -83.039062 37.546875 -76.875 C 33.046875 -70.71875 30.796875 -62.128906 30.796875 -51.109375 C 30.796875 -28.191406 39.394531 -16.734375 56.59375 -16.734375 C 63.8125 -16.734375 72.550781 -18.535156 82.8125 -22.140625 L 82.8125 -3.859375 C 74.382812 -0.347656 64.96875 1.40625 54.5625 1.40625 C 39.601562 1.40625 28.160156 -3.125 20.234375 -12.1875 C 12.316406 -21.257812 8.359375 -34.28125 8.359375 -51.25 C 8.359375 -61.9375 10.300781 -71.296875 14.1875 -79.328125 C 18.082031 -87.367188 23.675781 -93.535156 30.96875 -97.828125 C 38.257812 -102.117188 46.800781 -104.265625 56.59375 -104.265625 C 66.582031 -104.265625 76.613281 -101.847656 86.6875 -97.015625 L 79.65625 -79.296875 C 75.8125 -81.128906 71.941406 -82.722656 68.046875 -84.078125 C 64.160156 -85.441406 60.34375 -86.125 56.59375 -86.125 Z M 56.59375 -86.125 "/></g></g></g><g fill="#003398" fill-opacity="1"><g transform="translate(92.391819, 488.521322)"><g><path d="M 55.125 -80.078125 C 58.03125 -80.078125 60.441406 -79.863281 62.359375 -79.4375 L 60.75 -59.34375 C 59.007812 -59.8125 56.898438 -60.046875 54.421875 -60.046875 C 47.578125 -60.046875 42.242188 -58.285156 38.421875 -54.765625 C 34.597656 -51.253906 32.6875 -46.332031 32.6875 -40 L 32.6875 0 L 11.25 0 L 11.25 -78.59375 L 27.484375 -78.59375 L 30.65625 -65.390625 L 31.703125 -65.390625 C 34.140625 -69.796875 37.429688 -73.34375 41.578125 -76.03125 C 45.734375 -78.726562 50.25 -80.078125 55.125 -80.078125 Z M 55.125 -80.078125 "/></g></g></g><g fill="#003398" fill-opacity="1"><g transform="translate(157.759873, 488.521322)"><g><path d="M 66.9375 0 L 64.046875 -10.046875 L 62.921875 -10.046875 C 60.628906 -6.390625 57.375 -3.566406 53.15625 -1.578125 C 48.9375 0.410156 44.128906 1.40625 38.734375 1.40625 C 29.503906 1.40625 22.546875 -1.0625 17.859375 -6 C 13.171875 -10.945312 10.828125 -18.0625 10.828125 -27.34375 L 10.828125 -78.59375 L 32.265625 -78.59375 L 32.265625 -32.6875 C 32.265625 -27.019531 33.269531 -22.765625 35.28125 -19.921875 C 37.300781 -17.085938 40.515625 -15.671875 44.921875 -15.671875 C 50.921875 -15.671875 55.253906 -17.675781 57.921875 -21.6875 C 60.597656 -25.695312 61.9375 -32.34375 61.9375 -41.625 L 61.9375 -78.59375 L 83.375 -78.59375 L 83.375 0 Z M 66.9375 0 "/></g></g></g><g fill="#003398" fill-opacity="1"><g transform="translate(252.36783, 488.521322)"><g><path d="M 10.328125 -98.921875 C 10.328125 -105.898438 14.21875 -109.390625 22 -109.390625 C 29.78125 -109.390625 33.671875 -105.898438 33.671875 -98.921875 C 33.671875 -95.585938 32.695312 -92.992188 30.75 -91.140625 C 28.8125 -89.296875 25.894531 -88.375 22 -88.375 C 14.21875 -88.375 10.328125 -91.890625 10.328125 -98.921875 Z M 32.6875 0 L 11.25 0 L 11.25 -78.59375 L 32.6875 -78.59375 Z M 32.6875 0 "/></g></g></g><g fill="#003398" fill-opacity="1"><g transform="translate(296.297973, 488.521322)"><g><path d="M 66.09375 -23.34375 C 66.09375 -15.28125 63.289062 -9.140625 57.6875 -4.921875 C 52.082031 -0.703125 43.703125 1.40625 32.546875 1.40625 C 26.828125 1.40625 21.953125 1.019531 17.921875 0.25 C 13.890625 -0.519531 10.117188 -1.65625 6.609375 -3.15625 L 6.609375 -20.875 C 10.585938 -19 15.070312 -17.425781 20.0625 -16.15625 C 25.0625 -14.894531 29.457031 -14.265625 33.25 -14.265625 C 41.03125 -14.265625 44.921875 -16.515625 44.921875 -21.015625 C 44.921875 -22.703125 44.40625 -24.070312 43.375 -25.125 C 42.34375 -26.1875 40.5625 -27.382812 38.03125 -28.71875 C 35.5 -30.050781 32.125 -31.609375 27.90625 -33.390625 C 21.863281 -35.921875 17.421875 -38.265625 14.578125 -40.421875 C 11.742188 -42.578125 9.679688 -45.050781 8.390625 -47.84375 C 7.109375 -50.632812 6.46875 -54.066406 6.46875 -58.140625 C 6.46875 -65.128906 9.171875 -70.53125 14.578125 -74.34375 C 19.992188 -78.164062 27.671875 -80.078125 37.609375 -80.078125 C 47.078125 -80.078125 56.289062 -78.015625 65.25 -73.890625 L 58.78125 -58.421875 C 54.84375 -60.109375 51.160156 -61.488281 47.734375 -62.5625 C 44.316406 -63.644531 40.828125 -64.1875 37.265625 -64.1875 C 30.929688 -64.1875 27.765625 -62.476562 27.765625 -59.0625 C 27.765625 -57.132812 28.785156 -55.46875 30.828125 -54.0625 C 32.867188 -52.65625 37.332031 -50.570312 44.21875 -47.8125 C 50.363281 -45.320312 54.863281 -43 57.71875 -40.84375 C 60.582031 -38.6875 62.691406 -36.203125 64.046875 -33.390625 C 65.410156 -30.578125 66.09375 -27.226562 66.09375 -23.34375 Z M 66.09375 -23.34375 "/></g></g></g><g fill="#003398" fill-opacity="1"><g transform="translate(367.851392, 488.521322)"><g><path d="M 43.796875 -64.828125 C 39.253906 -64.828125 35.691406 -63.382812 33.109375 -60.5 C 30.535156 -57.613281 29.0625 -53.523438 28.6875 -48.234375 L 58.78125 -48.234375 C 58.6875 -53.523438 57.300781 -57.613281 54.625 -60.5 C 51.957031 -63.382812 48.347656 -64.828125 43.796875 -64.828125 Z M 46.828125 1.40625 C 34.171875 1.40625 24.28125 -2.082031 17.15625 -9.0625 C 10.03125 -16.050781 6.46875 -25.941406 6.46875 -38.734375 C 6.46875 -51.910156 9.757812 -62.09375 16.34375 -69.28125 C 22.925781 -76.476562 32.03125 -80.078125 43.65625 -80.078125 C 54.769531 -80.078125 63.414062 -76.910156 69.59375 -70.578125 C 75.78125 -64.253906 78.875 -55.515625 78.875 -44.359375 L 78.875 -33.953125 L 28.1875 -33.953125 C 28.425781 -27.859375 30.234375 -23.097656 33.609375 -19.671875 C 36.984375 -16.253906 41.71875 -14.546875 47.8125 -14.546875 C 52.539062 -14.546875 57.015625 -15.035156 61.234375 -16.015625 C 65.453125 -17.003906 69.859375 -18.578125 74.453125 -20.734375 L 74.453125 -4.140625 C 70.703125 -2.265625 66.691406 -0.875 62.421875 0.03125 C 58.160156 0.945312 52.960938 1.40625 46.828125 1.40625 Z M 46.828125 1.40625 "/></g></g></g><g fill="#003398" fill-opacity="1"><g transform="translate(452.900149, 488.521322)"><g/></g></g><g fill="#003398" fill-opacity="1"><g transform="translate(490.293487, 488.521322)"><g><path d="M 34.734375 -57.15625 L 41.765625 -57.15625 C 48.648438 -57.15625 53.734375 -58.300781 57.015625 -60.59375 C 60.296875 -62.894531 61.9375 -66.507812 61.9375 -71.4375 C 61.9375 -76.300781 60.257812 -79.765625 56.90625 -81.828125 C 53.5625 -83.890625 48.375 -84.921875 41.34375 -84.921875 L 34.734375 -84.921875 Z M 34.734375 -39.4375 L 34.734375 0 L 12.9375 0 L 12.9375 -102.78125 L 42.890625 -102.78125 C 56.859375 -102.78125 67.191406 -100.238281 73.890625 -95.15625 C 80.585938 -90.070312 83.9375 -82.351562 83.9375 -72 C 83.9375 -65.945312 82.269531 -60.566406 78.9375 -55.859375 C 75.613281 -51.148438 70.910156 -47.457031 64.828125 -44.78125 C 80.285156 -21.675781 90.359375 -6.75 95.046875 0 L 70.875 0 L 46.328125 -39.4375 Z M 34.734375 -39.4375 "/></g></g></g><g fill="#003398" fill-opacity="1"><g transform="translate(585.323172, 488.521322)"><g><path d="M 28.328125 -39.4375 C 28.328125 -31.65625 29.601562 -25.769531 32.15625 -21.78125 C 34.71875 -17.800781 38.878906 -15.8125 44.640625 -15.8125 C 50.359375 -15.8125 54.472656 -17.789062 56.984375 -21.75 C 59.492188 -25.71875 60.75 -31.613281 60.75 -39.4375 C 60.75 -47.21875 59.484375 -53.050781 56.953125 -56.9375 C 54.421875 -60.832031 50.269531 -62.78125 44.5 -62.78125 C 38.78125 -62.78125 34.65625 -60.847656 32.125 -56.984375 C 29.59375 -53.117188 28.328125 -47.269531 28.328125 -39.4375 Z M 82.671875 -39.4375 C 82.671875 -26.644531 79.296875 -16.640625 72.546875 -9.421875 C 65.804688 -2.203125 56.410156 1.40625 44.359375 1.40625 C 36.816406 1.40625 30.160156 -0.242188 24.390625 -3.546875 C 18.628906 -6.847656 14.203125 -11.59375 11.109375 -17.78125 C 8.015625 -23.96875 6.46875 -31.1875 6.46875 -39.4375 C 6.46875 -52.28125 9.816406 -62.265625 16.515625 -69.390625 C 23.222656 -76.515625 32.644531 -80.078125 44.78125 -80.078125 C 52.332031 -80.078125 58.988281 -78.4375 64.75 -75.15625 C 70.507812 -71.875 74.9375 -67.160156 78.03125 -61.015625 C 81.125 -54.878906 82.671875 -47.6875 82.671875 -39.4375 Z M 82.671875 -39.4375 "/></g></g></g><g fill="#003398" fill-opacity="1"><g transform="translate(674.448646, 488.521322)"><g><path d="M 0 -78.59375 L 23.484375 -78.59375 L 38.3125 -34.375 C 39.582031 -30.53125 40.453125 -25.984375 40.921875 -20.734375 L 41.34375 -20.734375 C 41.851562 -25.566406 42.859375 -30.113281 44.359375 -34.375 L 58.921875 -78.59375 L 81.90625 -78.59375 L 48.65625 10.046875 C 45.601562 18.253906 41.253906 24.394531 35.609375 28.46875 C 29.960938 32.550781 23.363281 34.59375 15.8125 34.59375 C 12.113281 34.59375 8.484375 34.191406 4.921875 33.390625 L 4.921875 16.375 C 7.492188 16.988281 10.304688 17.296875 13.359375 17.296875 C 17.148438 17.296875 20.460938 16.132812 23.296875 13.8125 C 26.140625 11.488281 28.359375 7.984375 29.953125 3.296875 L 31.21875 -0.5625 Z M 0 -78.59375 "/></g></g></g><g fill="#003398" fill-opacity="1"><g transform="translate(756.334388, 488.521322)"><g><path d="M 61.171875 0 L 57.015625 -10.6875 L 56.453125 -10.6875 C 52.847656 -6.132812 49.132812 -2.976562 45.3125 -1.21875 C 41.488281 0.53125 36.507812 1.40625 30.375 1.40625 C 22.820312 1.40625 16.878906 -0.75 12.546875 -5.0625 C 8.210938 -9.375 6.046875 -15.515625 6.046875 -23.484375 C 6.046875 -31.828125 8.960938 -37.976562 14.796875 -41.9375 C 20.628906 -45.894531 29.429688 -48.085938 41.203125 -48.515625 L 54.84375 -48.9375 L 54.84375 -52.375 C 54.84375 -60.34375 50.765625 -64.328125 42.609375 -64.328125 C 36.328125 -64.328125 28.941406 -62.429688 20.453125 -58.640625 L 13.359375 -73.109375 C 22.398438 -77.847656 32.429688 -80.21875 43.453125 -80.21875 C 53.992188 -80.21875 62.078125 -77.921875 67.703125 -73.328125 C 73.328125 -68.734375 76.140625 -61.75 76.140625 -52.375 L 76.140625 0 Z M 54.84375 -36.421875 L 46.546875 -36.140625 C 40.304688 -35.953125 35.660156 -34.828125 32.609375 -32.765625 C 29.566406 -30.703125 28.046875 -27.5625 28.046875 -23.34375 C 28.046875 -17.289062 31.515625 -14.265625 38.453125 -14.265625 C 43.421875 -14.265625 47.394531 -15.691406 50.375 -18.546875 C 53.351562 -21.410156 54.84375 -25.210938 54.84375 -29.953125 Z M 54.84375 -36.421875 "/></g></g></g><g fill="#003398" fill-opacity="1"><g transform="translate(843.280974, 488.521322)"><g><path d="M 32.6875 0 L 11.25 0 L 11.25 -109.390625 L 32.6875 -109.390625 Z M 32.6875 0 "/></g></g></g><g fill="#003398" fill-opacity="1"><g transform="translate(149.313468, 585.971414)"><g><path d="M 30.109375 0 L 5.953125 0 L 5.953125 -43.328125 L 30.109375 -43.328125 L 30.109375 -38.859375 L 11 -38.859375 L 11 -24.890625 L 28.953125 -24.890625 L 28.953125 -20.453125 L 11 -20.453125 L 11 -4.5 L 30.109375 -4.5 Z M 30.109375 0 "/></g></g></g><g fill="#003398" fill-opacity="1"><g transform="translate(188.27978, 585.971414)"><g><path d="M 13.046875 -16.625 L 1.75 -32.484375 L 7.34375 -32.484375 L 15.921875 -20.03125 L 24.453125 -32.484375 L 30 -32.484375 L 18.703125 -16.625 L 30.59375 0 L 25.015625 0 L 15.921875 -13.15625 L 6.734375 0 L 1.15625 0 Z M 13.046875 -16.625 "/></g></g></g><g fill="#003398" fill-opacity="1"><g transform="translate(225.290716, 585.971414)"><g><path d="M 20.328125 0.59375 C 18.210938 0.59375 16.28125 0.203125 14.53125 -0.578125 C 12.789062 -1.359375 11.328125 -2.554688 10.140625 -4.171875 L 9.78125 -4.171875 C 10.019531 -2.273438 10.140625 -0.476562 10.140625 1.21875 L 10.140625 14.578125 L 5.21875 14.578125 L 5.21875 -32.484375 L 9.21875 -32.484375 L 9.90625 -28.046875 L 10.140625 -28.046875 C 11.398438 -29.816406 12.867188 -31.097656 14.546875 -31.890625 C 16.234375 -32.679688 18.160156 -33.078125 20.328125 -33.078125 C 24.640625 -33.078125 27.960938 -31.601562 30.296875 -28.65625 C 32.640625 -25.71875 33.8125 -21.585938 33.8125 -16.265625 C 33.8125 -10.929688 32.617188 -6.785156 30.234375 -3.828125 C 27.859375 -0.878906 24.554688 0.59375 20.328125 0.59375 Z M 19.625 -28.90625 C 16.300781 -28.90625 13.898438 -27.984375 12.421875 -26.140625 C 10.941406 -24.304688 10.179688 -21.382812 10.140625 -17.375 L 10.140625 -16.265625 C 10.140625 -11.703125 10.898438 -8.4375 12.421875 -6.46875 C 13.941406 -4.507812 16.378906 -3.53125 19.734375 -3.53125 C 22.546875 -3.53125 24.742188 -4.664062 26.328125 -6.9375 C 27.921875 -9.207031 28.71875 -12.335938 28.71875 -16.328125 C 28.71875 -20.378906 27.921875 -23.488281 26.328125 -25.65625 C 24.742188 -27.820312 22.507812 -28.90625 19.625 -28.90625 Z M 19.625 -28.90625 "/></g></g></g><g fill="#003398" fill-opacity="1"><g transform="translate(267.69375, 585.971414)"><g><path d="M 18.9375 0.59375 C 14.132812 0.59375 10.34375 -0.867188 7.5625 -3.796875 C 4.789062 -6.722656 3.40625 -10.78125 3.40625 -15.96875 C 3.40625 -21.207031 4.691406 -25.367188 7.265625 -28.453125 C 9.847656 -31.535156 13.316406 -33.078125 17.671875 -33.078125 C 21.734375 -33.078125 24.953125 -31.738281 27.328125 -29.0625 C 29.703125 -26.382812 30.890625 -22.851562 30.890625 -18.46875 L 30.890625 -15.359375 L 8.5 -15.359375 C 8.601562 -11.546875 9.566406 -8.648438 11.390625 -6.671875 C 13.222656 -4.691406 15.800781 -3.703125 19.125 -3.703125 C 22.613281 -3.703125 26.066406 -4.429688 29.484375 -5.890625 L 29.484375 -1.515625 C 27.753906 -0.765625 26.113281 -0.226562 24.5625 0.09375 C 23.007812 0.425781 21.132812 0.59375 18.9375 0.59375 Z M 17.609375 -28.953125 C 14.992188 -28.953125 12.910156 -28.101562 11.359375 -26.40625 C 9.816406 -24.707031 8.90625 -22.359375 8.625 -19.359375 L 25.609375 -19.359375 C 25.609375 -22.460938 24.914062 -24.835938 23.53125 -26.484375 C 22.144531 -28.128906 20.171875 -28.953125 17.609375 -28.953125 Z M 17.609375 -28.953125 "/></g></g></g><g fill="#003398" fill-opacity="1"><g transform="translate(306.956331, 585.971414)"><g><path d="M 20.03125 -33.078125 C 21.476562 -33.078125 22.773438 -32.957031 23.921875 -32.71875 L 23.234375 -28.15625 C 21.890625 -28.457031 20.707031 -28.609375 19.6875 -28.609375 C 17.050781 -28.609375 14.800781 -27.539062 12.9375 -25.40625 C 11.070312 -23.269531 10.140625 -20.609375 10.140625 -17.421875 L 10.140625 0 L 5.21875 0 L 5.21875 -32.484375 L 9.28125 -32.484375 L 9.84375 -26.46875 L 10.078125 -26.46875 C 11.285156 -28.582031 12.738281 -30.210938 14.4375 -31.359375 C 16.132812 -32.503906 18 -33.078125 20.03125 -33.078125 Z M 20.03125 -33.078125 "/></g></g></g><g fill="#003398" fill-opacity="1"><g transform="translate(336.945666, 585.971414)"><g><path d="M 10.140625 0 L 5.21875 0 L 5.21875 -32.484375 L 10.140625 -32.484375 Z M 4.796875 -41.28125 C 4.796875 -42.414062 5.070312 -43.242188 5.625 -43.765625 C 6.1875 -44.285156 6.878906 -44.546875 7.703125 -44.546875 C 8.492188 -44.546875 9.175781 -44.28125 9.75 -43.75 C 10.320312 -43.21875 10.609375 -42.394531 10.609375 -41.28125 C 10.609375 -40.175781 10.320312 -39.351562 9.75 -38.8125 C 9.175781 -38.269531 8.492188 -38 7.703125 -38 C 6.878906 -38 6.1875 -38.269531 5.625 -38.8125 C 5.070312 -39.351562 4.796875 -40.175781 4.796875 -41.28125 Z M 4.796875 -41.28125 "/></g></g></g><g fill="#003398" fill-opacity="1"><g transform="translate(357.513641, 585.971414)"><g><path d="M 18.9375 0.59375 C 14.132812 0.59375 10.34375 -0.867188 7.5625 -3.796875 C 4.789062 -6.722656 3.40625 -10.78125 3.40625 -15.96875 C 3.40625 -21.207031 4.691406 -25.367188 7.265625 -28.453125 C 9.847656 -31.535156 13.316406 -33.078125 17.671875 -33.078125 C 21.734375 -33.078125 24.953125 -31.738281 27.328125 -29.0625 C 29.703125 -26.382812 30.890625 -22.851562 30.890625 -18.46875 L 30.890625 -15.359375 L 8.5 -15.359375 C 8.601562 -11.546875 9.566406 -8.648438 11.390625 -6.671875 C 13.222656 -4.691406 15.800781 -3.703125 19.125 -3.703125 C 22.613281 -3.703125 26.066406 -4.429688 29.484375 -5.890625 L 29.484375 -1.515625 C 27.753906 -0.765625 26.113281 -0.226562 24.5625 0.09375 C 23.007812 0.425781 21.132812 0.59375 18.9375 0.59375 Z M 17.609375 -28.953125 C 14.992188 -28.953125 12.910156 -28.101562 11.359375 -26.40625 C 9.816406 -24.707031 8.90625 -22.359375 8.625 -19.359375 L 25.609375 -19.359375 C 25.609375 -22.460938 24.914062 -24.835938 23.53125 -26.484375 C 22.144531 -28.128906 20.171875 -28.953125 17.609375 -28.953125 Z M 17.609375 -28.953125 "/></g></g></g><g fill="#003398" fill-opacity="1"><g transform="translate(396.776211, 585.971414)"><g><path d="M 27.453125 0 L 27.453125 -21.015625 C 27.453125 -23.660156 26.847656 -25.632812 25.640625 -26.9375 C 24.429688 -28.25 22.546875 -28.90625 19.984375 -28.90625 C 16.578125 -28.90625 14.082031 -27.984375 12.5 -26.140625 C 10.925781 -24.304688 10.140625 -21.273438 10.140625 -17.046875 L 10.140625 0 L 5.21875 0 L 5.21875 -32.484375 L 9.21875 -32.484375 L 10.015625 -28.046875 L 10.25 -28.046875 C 11.257812 -29.640625 12.671875 -30.875 14.484375 -31.75 C 16.304688 -32.632812 18.332031 -33.078125 20.5625 -33.078125 C 24.476562 -33.078125 27.421875 -32.132812 29.390625 -30.25 C 31.367188 -28.363281 32.359375 -25.34375 32.359375 -21.1875 L 32.359375 0 Z M 27.453125 0 "/></g></g></g><g fill="#003398" fill-opacity="1"><g transform="translate(439.23851, 585.971414)"><g><path d="M 18.203125 0.59375 C 13.492188 0.59375 9.847656 -0.851562 7.265625 -3.75 C 4.691406 -6.644531 3.40625 -10.738281 3.40625 -16.03125 C 3.40625 -21.46875 4.710938 -25.664062 7.328125 -28.625 C 9.953125 -31.59375 13.6875 -33.078125 18.53125 -33.078125 C 20.082031 -33.078125 21.640625 -32.910156 23.203125 -32.578125 C 24.765625 -32.242188 25.992188 -31.847656 26.890625 -31.390625 L 25.375 -27.203125 C 24.28125 -27.640625 23.09375 -28 21.8125 -28.28125 C 20.53125 -28.570312 19.394531 -28.71875 18.40625 -28.71875 C 11.800781 -28.71875 8.5 -24.507812 8.5 -16.09375 C 8.5 -12.101562 9.304688 -9.039062 10.921875 -6.90625 C 12.535156 -4.769531 14.921875 -3.703125 18.078125 -3.703125 C 20.785156 -3.703125 23.5625 -4.285156 26.40625 -5.453125 L 26.40625 -1.09375 C 24.238281 0.03125 21.503906 0.59375 18.203125 0.59375 Z M 18.203125 0.59375 "/></g></g></g><g fill="#003398" fill-opacity="1"><g transform="translate(473.346019, 585.971414)"><g><path d="M 18.9375 0.59375 C 14.132812 0.59375 10.34375 -0.867188 7.5625 -3.796875 C 4.789062 -6.722656 3.40625 -10.78125 3.40625 -15.96875 C 3.40625 -21.207031 4.691406 -25.367188 7.265625 -28.453125 C 9.847656 -31.535156 13.316406 -33.078125 17.671875 -33.078125 C 21.734375 -33.078125 24.953125 -31.738281 27.328125 -29.0625 C 29.703125 -26.382812 30.890625 -22.851562 30.890625 -18.46875 L 30.890625 -15.359375 L 8.5 -15.359375 C 8.601562 -11.546875 9.566406 -8.648438 11.390625 -6.671875 C 13.222656 -4.691406 15.800781 -3.703125 19.125 -3.703125 C 22.613281 -3.703125 26.066406 -4.429688 29.484375 -5.890625 L 29.484375 -1.515625 C 27.753906 -0.765625 26.113281 -0.226562 24.5625 0.09375 C 23.007812 0.425781 21.132812 0.59375 18.9375 0.59375 Z M 17.609375 -28.953125 C 14.992188 -28.953125 12.910156 -28.101562 11.359375 -26.40625 C 9.816406 -24.707031 8.90625 -22.359375 8.625 -19.359375 L 25.609375 -19.359375 C 25.609375 -22.460938 24.914062 -24.835938 23.53125 -26.484375 C 22.144531 -28.128906 20.171875 -28.953125 17.609375 -28.953125 Z M 17.609375 -28.953125 "/></g></g></g><g fill="#003398" fill-opacity="1"><g transform="translate(512.608612, 585.971414)"><g/></g></g><g fill="#003398" fill-opacity="1"><g transform="translate(533.591375, 585.971414)"><g><path d="M 5.953125 0 L 5.953125 -43.328125 L 11 -43.328125 L 11 -4.5625 L 30.109375 -4.5625 L 30.109375 0 Z M 5.953125 0 "/></g></g></g><g fill="#003398" fill-opacity="1"><g transform="translate(570.306053, 585.971414)"><g><path d="M 9.84375 -32.484375 L 9.84375 -11.40625 C 9.84375 -8.757812 10.441406 -6.785156 11.640625 -5.484375 C 12.847656 -4.179688 14.738281 -3.53125 17.3125 -3.53125 C 20.707031 -3.53125 23.191406 -4.457031 24.765625 -6.3125 C 26.335938 -8.164062 27.125 -11.195312 27.125 -15.40625 L 27.125 -32.484375 L 32.046875 -32.484375 L 32.046875 0 L 27.984375 0 L 27.265625 -4.359375 L 27 -4.359375 C 25.988281 -2.753906 24.585938 -1.523438 22.796875 -0.671875 C 21.015625 0.171875 18.976562 0.59375 16.6875 0.59375 C 12.738281 0.59375 9.78125 -0.34375 7.8125 -2.21875 C 5.84375 -4.09375 4.859375 -7.097656 4.859375 -11.234375 L 4.859375 -32.484375 Z M 9.84375 -32.484375 "/></g></g></g><g fill="#003398" fill-opacity="1"><g transform="translate(612.768352, 585.971414)"><g><path d="M 13.046875 -16.625 L 1.75 -32.484375 L 7.34375 -32.484375 L 15.921875 -20.03125 L 24.453125 -32.484375 L 30 -32.484375 L 18.703125 -16.625 L 30.59375 0 L 25.015625 0 L 15.921875 -13.15625 L 6.734375 0 L 1.15625 0 Z M 13.046875 -16.625 "/></g></g></g><g fill="#003398" fill-opacity="1"><g transform="translate(649.779299, 585.971414)"><g><path d="M 9.84375 -32.484375 L 9.84375 -11.40625 C 9.84375 -8.757812 10.441406 -6.785156 11.640625 -5.484375 C 12.847656 -4.179688 14.738281 -3.53125 17.3125 -3.53125 C 20.707031 -3.53125 23.191406 -4.457031 24.765625 -6.3125 C 26.335938 -8.164062 27.125 -11.195312 27.125 -15.40625 L 27.125 -32.484375 L 32.046875 -32.484375 L 32.046875 0 L 27.984375 0 L 27.265625 -4.359375 L 27 -4.359375 C 25.988281 -2.753906 24.585938 -1.523438 22.796875 -0.671875 C 21.015625 0.171875 18.976562 0.59375 16.6875 0.59375 C 12.738281 0.59375 9.78125 -0.34375 7.8125 -2.21875 C 5.84375 -4.09375 4.859375 -7.097656 4.859375 -11.234375 L 4.859375 -32.484375 Z M 9.84375 -32.484375 "/></g></g></g><g fill="#003398" fill-opacity="1"><g transform="translate(692.241599, 585.971414)"><g><path d="M 20.03125 -33.078125 C 21.476562 -33.078125 22.773438 -32.957031 23.921875 -32.71875 L 23.234375 -28.15625 C 21.890625 -28.457031 20.707031 -28.609375 19.6875 -28.609375 C 17.050781 -28.609375 14.800781 -27.539062 12.9375 -25.40625 C 11.070312 -23.269531 10.140625 -20.609375 10.140625 -17.421875 L 10.140625 0 L 5.21875 0 L 5.21875 -32.484375 L 9.28125 -32.484375 L 9.84375 -26.46875 L 10.078125 -26.46875 C 11.285156 -28.582031 12.738281 -30.210938 14.4375 -31.359375 C 16.132812 -32.503906 18 -33.078125 20.03125 -33.078125 Z M 20.03125 -33.078125 "/></g></g></g><g fill="#003398" fill-opacity="1"><g transform="translate(722.230944, 585.971414)"><g><path d="M 0.0625 -32.484375 L 5.328125 -32.484375 L 12.453125 -13.953125 C 14.015625 -9.734375 14.984375 -6.679688 15.359375 -4.796875 L 15.59375 -4.796875 C 15.84375 -5.804688 16.378906 -7.53125 17.203125 -9.96875 C 18.023438 -12.414062 20.707031 -19.921875 25.25 -32.484375 L 30.53125 -32.484375 L 16.5625 4.5 C 15.1875 8.15625 13.570312 10.75 11.71875 12.28125 C 9.875 13.8125 7.609375 14.578125 4.921875 14.578125 C 3.421875 14.578125 1.9375 14.410156 0.46875 14.078125 L 0.46875 10.140625 C 1.5625 10.378906 2.78125 10.5 4.125 10.5 C 7.5 10.5 9.910156 8.597656 11.359375 4.796875 L 13.15625 0.171875 Z M 0.0625 -32.484375 "/></g></g></g></svg>