<?xml version="1.0" encoding="UTF-8"?><svg id="OBJECTS" xmlns="http://www.w3.org/2000/svg" xmlns:xlink="http://www.w3.org/1999/xlink" viewBox="0 0 357.36 468.29"><defs><linearGradient id="linear-gradient" x1="-119.86" y1="243.67" x2="197.76" y2="160.33" gradientTransform="translate(476.34 196.79) rotate(-135) scale(1 -1)" gradientUnits="userSpaceOnUse"><stop offset="0" stop-color="#5aa0fc"/><stop offset="1" stop-color="#90ff95"/></linearGradient><linearGradient id="linear-gradient-2" x1="8" y1="362.58" x2="785.14" y2="-103.71" xlink:href="#linear-gradient"/></defs><path d="M216.53,189.41c2.39,1.59,113.09,172.02,113.09,169.63,0-2.39-11.15-92.38-31.46-135.79s-67.3-99.95-102.74-121.85c-35.44-21.9-82.83-42.21-81.63-41.02s26.68,9.16,74.07,64.51c47.39,55.35,60.13,73.67,60.13,73.67" fill="url(#linear-gradient)" stroke-width="0"/><path d="M357.36,468.29s-46.72-151.85-165.12-286.18C73.84,47.78,22.87,0,22.87,0,22.87,0,.57,44.6.04,101.41c-.53,56.81,3.72,72.74,33.98,104.06,30.26,31.33,69.55,63.18,69.55,63.18,0,0-49.38-46.19-59.46-92.38-10.09-46.19,6.37-107.25,6.37-107.25,0,0,243.7,250.07,306.88,399.27Z" fill="url(#linear-gradient-2)" stroke-width="0"/></svg>